<svg 
 xmlns="http://www.w3.org/2000/svg"
 xmlns:xlink="http://www.w3.org/1999/xlink"
 width="20px" height="19px">
<path fill-rule="evenodd"  fill="rgb(255, 255, 255)"
 d="M10.700,10.920 C10.508,11.112 10.255,11.208 10.000,11.206 C9.747,11.208 9.492,11.114 9.300,10.921 L1.063,2.683 C0.681,2.303 0.681,1.678 1.063,1.297 L1.757,0.603 C2.138,0.221 2.762,0.221 3.144,0.603 L10.000,7.459 L16.856,0.603 C17.238,0.222 17.863,0.222 18.244,0.603 L18.938,1.297 C19.319,1.678 19.319,2.303 18.938,2.683 L10.700,10.920 ZM1.757,7.776 C2.138,7.394 2.762,7.394 3.144,7.776 L10.000,14.633 L16.856,7.776 C17.238,7.395 17.863,7.395 18.244,7.776 L18.938,8.470 C19.319,8.851 19.319,9.476 18.938,9.857 L10.700,18.093 C10.508,18.287 10.255,18.381 10.000,18.379 C9.747,18.381 9.492,18.287 9.300,18.095 L1.063,9.857 C0.681,9.476 0.681,8.851 1.063,8.470 L1.757,7.776 Z"/>
</svg>