<svg 
 xmlns="http://www.w3.org/2000/svg"
 xmlns:xlink="http://www.w3.org/1999/xlink"
 width="43px" height="41px">
<path fill-rule="evenodd"  fill="rgb(255, 255, 255)"
 d="M42.043,24.751 L42.043,17.392 L35.802,16.280 C35.566,15.571 35.278,14.885 34.940,14.227 L38.378,9.495 L32.975,4.180 L28.174,7.555 C27.503,7.221 26.801,6.934 26.076,6.700 L25.107,0.973 L17.469,0.973 L16.499,6.698 C15.774,6.933 15.073,7.220 14.401,7.554 L9.599,4.180 L4.198,9.493 L7.634,14.225 C7.296,14.884 7.007,15.569 6.772,16.280 L0.939,17.236 L0.939,24.751 L6.787,25.710 C7.022,26.411 7.311,27.092 7.646,27.743 L4.198,32.491 L9.599,37.807 L14.435,34.410 C15.094,34.735 15.781,35.016 16.492,35.248 L17.469,41.013 L25.107,41.013 L26.084,35.246 C26.795,35.015 27.482,34.735 28.141,34.408 L32.977,37.805 L38.378,32.491 L34.930,27.743 C35.266,27.091 35.554,26.411 35.789,25.707 L42.043,24.751 ZM21.288,25.998 C18.478,25.998 16.201,23.758 16.201,20.993 C16.201,18.230 18.478,15.989 21.288,15.989 C24.098,15.989 26.375,18.230 26.375,20.993 C26.375,23.758 24.098,25.998 21.288,25.998 "/>
</svg>