<svg 
 xmlns="http://www.w3.org/2000/svg"
 xmlns:xlink="http://www.w3.org/1999/xlink"
 width="39px" height="32px">
<path fill-rule="evenodd"  fill="rgb(255, 255, 255)"
 d="M11.607,17.941 C11.607,22.228 15.148,25.704 19.514,25.704 C23.880,25.704 27.421,22.228 27.421,17.941 C27.421,13.655 23.880,10.180 19.514,10.180 C15.148,10.180 11.607,13.655 11.607,17.941 M36.544,4.806 L28.029,4.806 C27.421,2.417 26.813,0.029 24.380,0.029 L14.649,0.029 C12.216,0.029 11.607,2.417 11.000,4.806 L2.484,4.806 C1.147,4.806 0.052,5.881 0.052,7.193 L0.052,28.689 C0.052,30.001 1.147,31.077 2.484,31.077 L36.544,31.077 C37.881,31.077 38.977,30.001 38.977,28.689 L38.977,7.193 C38.977,5.881 37.881,4.806 36.544,4.806 M19.514,28.539 C13.552,28.539 8.719,23.796 8.719,17.941 C8.719,12.087 13.552,7.343 19.514,7.343 C25.477,7.343 30.310,12.087 30.310,17.941 C30.310,23.796 25.477,28.539 19.514,28.539 M36.982,12.001 L31.991,12.033 L31.991,9.957 L36.982,9.989 L36.982,12.001 Z"/>
</svg>