<svg 
 xmlns="http://www.w3.org/2000/svg"
 xmlns:xlink="http://www.w3.org/1999/xlink"
 width="39px" height="40px">
<path fill-rule="evenodd"  fill="rgb(255, 255, 255)"
 d="M36.328,11.772 L27.928,3.372 L30.328,0.971 L38.728,9.372 L36.328,11.772 ZM33.928,14.172 L32.728,27.371 C21.930,27.371 6.329,39.372 6.329,39.372 L4.336,37.380 L14.600,27.116 C15.011,27.281 15.459,27.371 15.929,27.371 C17.918,27.371 19.530,25.759 19.530,23.771 C19.530,21.782 17.918,20.172 15.929,20.172 C13.941,20.172 12.329,21.782 12.329,23.771 C12.329,24.241 12.420,24.689 12.583,25.101 L2.322,35.364 L0.329,33.372 C0.329,33.372 12.329,17.772 12.329,6.972 L25.530,5.772 L33.928,14.172 Z"/>
</svg>